<?xml version="1.0" standalone="no"?>
<!DOCTYPE svg PUBLIC "-//W3C//DTD SVG 20010904//EN"
 "http://www.w3.org/TR/2001/REC-SVG-20010904/DTD/svg10.dtd">
<svg version="1.0" xmlns="http://www.w3.org/2000/svg"
 width="114.000000pt" height="114.000000pt" viewBox="0 0 114.000000 114.000000"
 preserveAspectRatio="xMidYMid meet">
<metadata>
Created by potrace 1.11, written by Peter Selinger 2001-2013
</metadata>
<g transform="translate(0.000000,114.000000) scale(0.100000,-0.100000)"
fill="#000000" stroke="none">
<path d="M505 1102 c-7 -7 -34 -13 -57 -13 -10 0 -18 -5 -18 -10 0 -6 -4 -8
-9 -5 -5 3 -20 -4 -35 -15 -14 -11 -30 -18 -35 -15 -5 3 -25 -1 -44 -9 -25
-10 -39 -24 -46 -47 -8 -24 -23 -39 -52 -52 -49 -24 -51 -27 -56 -84 -1 -25
-9 -49 -16 -54 -6 -4 -9 -8 -5 -8 4 0 3 -13 -3 -28 -6 -18 -6 -37 0 -53 7 -18
4 -32 -10 -55 -13 -22 -16 -38 -10 -60 7 -29 51 -61 61 -44 3 4 17 11 32 15
15 4 38 17 52 29 15 15 34 22 52 21 16 -2 30 -4 32 -5 1 -1 7 -3 14 -4 7 0 18
-11 24 -24 6 -13 25 -36 41 -52 28 -28 29 -29 26 -137 -1 -59 -4 -119 -7 -133
-3 -14 -7 -32 -9 -41 -1 -10 -8 -23 -14 -31 -6 -7 -13 -20 -15 -28 -2 -8 -12
-23 -22 -32 -10 -10 -16 -18 -11 -18 4 0 3 -6 -3 -13 -7 -8 -7 -17 2 -29 10
-14 26 -17 81 -15 37 1 73 -2 79 -8 39 -34 101 -41 120 -13 8 14 5 22 -13 42
-13 14 -27 23 -31 21 -5 -3 -10 1 -13 9 -6 14 16 30 27 19 10 -10 66 -11 72
-2 3 5 9 7 13 5 4 -3 8 2 8 10 0 15 -26 44 -70 79 -14 10 -23 23 -21 27 3 4 0
8 -6 8 -14 0 -43 67 -35 80 4 6 2 10 -2 10 -8 0 -9 130 -1 160 12 45 48 90 72
90 18 0 57 -20 68 -35 4 -5 8 -6 8 -1 0 5 6 4 13 -1 16 -14 49 -8 59 11 9 16
22 15 86 -8 39 -14 47 -14 72 -1 16 8 35 15 43 15 19 0 44 29 52 61 4 17 -1
42 -15 71 -11 25 -22 55 -23 67 -1 22 -13 37 -55 69 -13 9 -24 24 -26 32 -6
28 -18 50 -26 45 -15 -9 -59 43 -55 64 2 12 0 21 -6 21 -5 0 -9 6 -9 14 0 21
-52 61 -103 81 -35 13 -52 14 -81 7 -20 -6 -36 -7 -36 -3 0 8 -97 11 -105 3z"/>
</g>
</svg>
